<svg width="35" height="39" viewBox="0 0 35 39" fill="none" xmlns="http://www.w3.org/2000/svg">
<path d="M35 17.5C35 30.5433 26.6739 30.0164 25.6161 30.0164C24.4183 30.0164 23.3858 29.7578 22.5147 29.2444C21.6436 28.7292 20.9864 27.9903 20.5392 27.0297C19.8431 28.0039 19.0322 28.735 18.1047 29.2231C17.1792 29.7111 16.1739 29.9542 15.0869 29.9542C14.0719 29.9542 13.1619 29.7325 12.3628 29.2853C11.5617 28.84 10.8967 28.21 10.3678 27.3933C9.83889 26.5806 9.46167 25.5967 9.24 24.4494C9.01833 23.2983 8.97556 22.015 9.11556 20.5956C9.31194 18.8125 9.69694 17.2006 10.2764 15.7597C10.8519 14.3189 11.5694 13.09 12.425 12.0731C13.2825 11.0581 14.2567 10.2744 15.3475 9.72222C16.4422 9.17194 17.6011 8.89778 18.8261 8.89778C22.7656 8.89778 24.8208 10.8831 25.2389 11.1747L24.1733 23.2478C24.0897 23.9439 23.7786 26.6525 26.3667 26.6525C27.0492 26.6525 31.1111 25.7639 31.1111 17.5C31.1111 17.2414 32.8942 3.88889 18.3264 3.88889C6.36028 3.88889 3.88889 15.3533 3.88889 19.4444C3.88889 35.7544 14.2178 35 17.5 35C21.4297 35 23.4364 34.1717 23.8817 33.9636L24.7508 37.5122C24.2628 37.8331 22.3203 38.8889 17.5 38.8889C11.5442 38.8889 0 38.605 0 19.4444C0 16.7961 1.45833 0 18.41 0C34.6344 0 35 14.7058 35 17.5ZM13.7511 20.5956C13.5975 22.4331 13.7589 23.8292 14.2314 24.7839C14.7039 25.7367 15.4719 26.2131 16.5297 26.2131C18.6744 26.2131 19.7458 23.4208 19.9967 22.7247L20.8736 12.845C20.6228 12.7614 19.5086 12.5728 19.2033 12.5728C17.6031 12.5728 16.3586 13.2553 15.4739 14.6203C14.5911 15.9872 14.0156 17.9783 13.7511 20.5956Z" fill="black"/>
</svg>
