<svg width="307" height="133" viewBox="0 0 307 133" fill="none" xmlns="http://www.w3.org/2000/svg">
<path d="M257.723 89.1284C257.346 89.1284 257.021 88.9914 256.747 88.7174C256.49 88.4434 256.361 88.1095 256.361 87.7156C256.361 87.3217 256.49 86.9964 256.747 86.7395C257.021 86.4655 257.346 86.3285 257.723 86.3285C258.1 86.3285 258.425 86.4655 258.699 86.7395C258.973 86.9964 259.11 87.3217 259.11 87.7156C259.11 88.1095 258.973 88.4434 258.699 88.7174C258.425 88.9914 258.1 89.1284 257.723 89.1284ZM274.94 69.9398V89H273.194V86.3285C272.646 87.2361 271.918 87.9297 271.01 88.4092C270.12 88.8887 269.109 89.1284 267.979 89.1284C266.712 89.1284 265.564 88.8373 264.537 88.2551C263.509 87.6728 262.705 86.8594 262.122 85.8147C261.54 84.7701 261.249 83.5799 261.249 82.2441C261.249 80.9084 261.54 79.7182 262.122 78.6736C262.705 77.6289 263.509 76.824 264.537 76.2589C265.564 75.6767 266.712 75.3855 267.979 75.3855C269.075 75.3855 270.06 75.6167 270.933 76.0791C271.824 76.5244 272.551 77.1837 273.117 78.0571V69.9398H274.94ZM268.133 87.5101C269.075 87.5101 269.923 87.2961 270.676 86.8679C271.447 86.4227 272.046 85.7976 272.474 84.9927C272.92 84.1878 273.142 83.2717 273.142 82.2441C273.142 81.2166 272.92 80.3004 272.474 79.4956C272.046 78.6907 271.447 78.0742 270.676 77.6461C269.923 77.2008 269.075 76.9782 268.133 76.9782C267.174 76.9782 266.309 77.2008 265.539 77.6461C264.785 78.0742 264.186 78.6907 263.741 79.4956C263.313 80.3004 263.098 81.2166 263.098 82.2441C263.098 83.2717 263.313 84.1878 263.741 84.9927C264.186 85.7976 264.785 86.4227 265.539 86.8679C266.309 87.2961 267.174 87.5101 268.133 87.5101ZM291.785 82.8093H280.482C280.585 84.2135 281.124 85.3524 282.1 86.2257C283.077 87.082 284.31 87.5101 285.8 87.5101C286.639 87.5101 287.409 87.3646 288.111 87.0734C288.814 86.7652 289.421 86.3199 289.935 85.7377L290.963 86.9193C290.363 87.6386 289.61 88.1866 288.702 88.5633C287.812 88.9401 286.827 89.1284 285.748 89.1284C284.361 89.1284 283.128 88.8373 282.049 88.2551C280.987 87.6557 280.157 86.8337 279.557 85.789C278.958 84.7444 278.658 83.5628 278.658 82.2441C278.658 80.9255 278.941 79.7439 279.506 78.6992C280.088 77.6546 280.876 76.8412 281.869 76.2589C282.88 75.6767 284.01 75.3855 285.26 75.3855C286.51 75.3855 287.632 75.6767 288.625 76.2589C289.618 76.8412 290.398 77.6546 290.963 78.6992C291.528 79.7268 291.81 80.9084 291.81 82.2441L291.785 82.8093ZM285.26 76.9525C283.959 76.9525 282.863 77.3721 281.972 78.2112C281.099 79.0332 280.602 80.1121 280.482 81.4478H290.064C289.944 80.1121 289.439 79.0332 288.548 78.2112C287.675 77.3721 286.579 76.9525 285.26 76.9525ZM306.626 75.4883L300.615 89H298.74L292.754 75.4883H294.655L299.716 86.9964L304.828 75.4883H306.626Z" fill="#767676"/>
<path d="M44.0401 38.1301V45.8234H27.2405V89H18.2912V45.8234H1.25605V38.1301H44.0401ZM98.1403 88.4505V89H88.0134L74.2754 69.7668H68.1522V89H59.2028V38.1301H76.0024C80.1893 38.1301 83.6957 38.7843 86.5218 40.0927C89.4003 41.4011 91.546 43.2066 92.9591 45.5094C94.4245 47.8122 95.1571 50.4812 95.1571 53.5167C95.1571 57.1278 94.1628 60.2941 92.174 63.0155C90.2376 65.6846 87.3854 67.5687 83.6172 68.6678L98.1403 88.4505ZM68.1522 62.7015H74.9034C78.4622 62.7015 81.1836 61.9688 83.0677 60.5035C84.9518 58.9857 85.8938 56.7615 85.8938 53.8307C85.8938 51.1093 85.0303 49.042 83.3032 47.629C81.6285 46.2159 79.1687 45.5094 75.9239 45.5094H68.1522V62.7015ZM209.151 81.5422H233.408V89H200.201V38.1301H233.016V45.5094H209.151V59.4829H229.875L228.855 66.7052H209.151V81.5422Z" fill="white"/>
<path d="M113.358 89V38.1301H122.307V89H113.358ZM176.046 38.1301H185.153V38.6796L166.469 89H156.107L137.423 38.6796V38.1301H146.843L161.445 80.1292L176.046 38.1301Z" fill="#579FFF"/>
</svg>
