<svg width="35" height="35" viewBox="0 0 35 35" fill="none" xmlns="http://www.w3.org/2000/svg">
<path d="M13.4233 21.5947C16.5626 24.711 20.1962 27.6879 21.6228 26.2504C23.6653 24.193 24.9226 22.4029 29.455 26.0176C33.9875 29.634 30.5259 32.0677 28.5477 34.0615C26.2648 36.3616 17.7144 34.2226 9.23915 25.8117C0.76439 17.399 -1.43985 8.86526 0.844692 6.56401C2.82355 4.57022 5.23141 1.09145 8.87939 5.59753C12.5291 10.1013 10.7487 11.3723 8.70614 13.4304C7.28028 14.8672 10.2836 18.4779 13.4233 21.5947ZM17.9754 6.72807C17.9754 6.72807 17.0284 6.58012 16.3653 7.24371C15.6827 7.92627 15.653 9.10211 16.3722 9.82078C16.7973 10.2458 17.3967 10.3364 17.3967 10.3364C18.5651 10.5556 20.326 10.9266 22.1999 12.7999C24.0732 14.6732 24.4443 16.4341 24.6634 17.6031C24.6634 17.6031 24.754 18.2025 25.1791 18.6275C25.8978 19.3463 27.0736 19.317 27.7561 18.6345C28.4192 17.9715 28.2718 17.0245 28.2718 17.0245C27.9007 14.6578 26.7536 12.1857 24.7838 10.216C22.8136 8.24638 20.3413 7.09972 17.9754 6.72807ZM26.8584 8.14136C30.2931 11.576 31.7574 15.4741 31.2807 18.6328C31.2807 18.6328 31.1144 19.6331 31.7677 20.2864C32.503 21.0217 33.6685 20.9793 34.3568 20.2916C34.7991 19.8494 34.8954 19.1295 34.8954 19.1295C35.2895 16.3998 34.7939 10.9084 29.4424 5.55746C24.0909 0.206443 18.6 -0.289115 15.8703 0.104379C15.8703 0.104379 15.151 0.200201 14.7082 0.642956C14.0199 1.33125 13.978 2.49681 14.7133 3.23209C15.3667 3.88547 16.3669 3.71904 16.3669 3.71904C19.5257 3.24238 23.4237 4.70679 26.8584 8.14136Z" fill="black"/>
</svg>
