<svg width="37" height="41" viewBox="0 0 37 41" fill="none" xmlns="http://www.w3.org/2000/svg">
<path d="M36.5076 18.6737C36.5076 32.1121 27.9293 31.5692 26.8395 31.5692C25.6054 31.5692 24.5416 31.3027 23.6441 30.7739C22.7466 30.243 22.0695 29.4817 21.6087 28.492C20.8915 29.4957 20.0562 30.249 19.1006 30.7518C18.147 31.2547 17.1112 31.5051 15.9914 31.5051C14.9456 31.5051 14.0081 31.2767 13.1847 30.8159C12.3593 30.3572 11.6742 29.7081 11.1292 28.8667C10.5843 28.0293 10.1957 27.0156 9.96731 25.8336C9.73893 24.6476 9.69486 23.3254 9.8391 21.863C10.0414 20.0259 10.4381 18.3651 11.0351 16.8807C11.6281 15.3962 12.3673 14.1301 13.2488 13.0823C14.1323 12.0366 15.1359 11.2292 16.2598 10.6603C17.3877 10.0933 18.5817 9.81086 19.8438 9.81086C23.9026 9.81086 26.0201 11.8563 26.4508 12.1568L25.353 24.5955C25.2669 25.3127 24.9463 28.1034 27.6128 28.1034C28.3159 28.1034 32.5009 27.1879 32.5009 18.6737C32.5009 18.4072 34.338 4.65024 19.3289 4.65024C7.00036 4.65024 4.45411 16.462 4.45411 20.677C4.45411 37.481 15.0959 36.7038 18.4775 36.7038C22.5263 36.7038 24.5937 35.8503 25.0525 35.636L25.948 39.2921C25.4451 39.6226 23.4438 40.7104 18.4775 40.7104C12.3413 40.7104 0.447418 40.418 0.447418 20.677C0.447418 17.9484 1.94993 0.643555 19.4151 0.643555C36.131 0.643555 36.5076 15.7948 36.5076 18.6737ZM14.6151 21.863C14.4568 23.7561 14.6231 25.1945 15.1099 26.1782C15.5967 27.1598 16.388 27.6506 17.4778 27.6506C19.6875 27.6506 20.7914 24.7738 21.0498 24.0566L21.9533 13.8776C21.6949 13.7915 20.547 13.5972 20.2324 13.5972C18.5837 13.5972 17.3016 14.3004 16.39 15.7067C15.4805 17.1151 14.8875 19.1665 14.6151 21.863Z" fill="black"/>
</svg>
