<svg width="241" height="54" viewBox="0 0 241 54" fill="none" xmlns="http://www.w3.org/2000/svg">
<path d="M44.8385 0.761997V8.70805H27.4869V53.3032H18.2436V8.70805H0.648739V0.761997H44.8385ZM100.716 52.7356V53.3032H90.2565L76.0672 33.4381H69.7428V53.3032H60.4994V0.761997H77.851C82.1753 0.761997 85.797 1.43768 88.716 2.78905C91.689 4.14042 93.9052 6.00531 95.3647 8.38372C96.8782 10.7621 97.635 13.5189 97.635 16.6541C97.635 20.3839 96.608 23.6542 94.5539 26.465C92.5539 29.2218 89.6079 31.1678 85.7159 32.3029L100.716 52.7356ZM69.7428 26.1407H76.7158C80.3915 26.1407 83.2024 25.3839 85.1484 23.8704C87.0943 22.3028 88.0673 20.0055 88.0673 16.9784C88.0673 14.1676 87.1754 12.0324 85.3916 10.5729C83.6619 9.11346 81.1213 8.38372 77.7699 8.38372H69.7428V26.1407ZM215.374 45.6004H240.428V53.3032H206.131V0.761997H240.023V8.38372H215.374V22.8163H236.78L235.725 30.2759H215.374V45.6004Z" fill="white"/>
<path d="M116.433 53.3032V0.761997H125.677V53.3032H116.433ZM181.182 0.761997H190.587V1.32957L171.29 53.3032H160.587L141.29 1.32957V0.761997H151.019L166.101 44.1409L181.182 0.761997Z" fill="#579FFF"/>
</svg>
