<svg width="37" height="37" viewBox="0 0 37 37" fill="none" xmlns="http://www.w3.org/2000/svg">
<path d="M14.2774 22.8626C17.5117 26.0733 21.2555 29.1403 22.7252 27.6594C24.8296 25.5396 26.1249 23.6953 30.7947 27.4194C35.4645 31.1454 31.8981 33.6529 29.8599 35.707C27.5079 38.0768 18.6984 35.8731 9.96645 27.2073C1.23498 18.5398 -1.03603 9.74757 1.31771 7.37661C3.35651 5.32243 5.83731 1.73828 9.59579 6.38085C13.3561 11.0211 11.5217 12.3306 9.41729 14.451C7.94824 15.9313 11.0425 19.6514 14.2774 22.8626ZM18.9673 7.54564C18.9673 7.54564 17.9916 7.39321 17.3085 8.0769C16.6052 8.78014 16.5746 9.9916 17.3156 10.732C17.7535 11.1699 18.3711 11.2633 18.3711 11.2633C19.5749 11.4891 21.3891 11.8714 23.3198 13.8014C25.2499 15.7314 25.6322 17.5457 25.858 18.7501C25.858 18.7501 25.9513 19.3676 26.3892 19.8056C27.1297 20.5461 28.3411 20.5159 29.0443 19.8127C29.7275 19.1296 29.5756 18.1539 29.5756 18.1539C29.1933 15.7156 28.0114 13.1686 25.982 11.1393C23.952 9.10994 21.4049 7.92855 18.9673 7.54564ZM28.1194 9.00174C31.6581 12.5404 33.1668 16.5566 32.6757 19.811C32.6757 19.811 32.5043 20.8416 33.1774 21.5146C33.935 22.2723 35.1358 22.2286 35.8449 21.52C36.3006 21.0644 36.3998 20.3227 36.3998 20.3227C36.8059 17.5104 36.2953 11.8526 30.7817 6.33957C25.268 0.826466 19.6109 0.315897 16.7984 0.72131C16.7984 0.72131 16.0574 0.820035 15.6011 1.2762C14.892 1.98535 14.8489 3.18621 15.6064 3.94376C16.2796 4.61693 17.3101 4.44547 17.3101 4.44547C20.5646 3.95437 24.5807 5.46313 28.1194 9.00174Z" fill="black"/>
</svg>
