<svg width="38" height="35" viewBox="0 0 38 35" fill="none" xmlns="http://www.w3.org/2000/svg">
<path d="M37.0267 0.965965C36.3892 0.42533 35.3878 0.347975 34.3524 0.763652H34.3507C33.2618 1.20058 3.52687 13.9548 2.31639 14.4759C2.09623 14.5524 0.173403 15.2699 0.371466 16.868C0.548278 18.3088 2.09368 18.9055 2.28239 18.9744L9.84194 21.5628C10.3435 23.2323 12.1923 29.3918 12.6012 30.7077C12.8562 31.528 13.2719 32.6059 14.0004 32.8278C14.6397 33.0743 15.2755 32.849 15.6869 32.526L20.3087 28.2392L27.7696 34.0578L27.9473 34.1641C28.4539 34.3885 28.9393 34.5007 29.4026 34.5007C29.7604 34.5007 30.1039 34.4335 30.432 34.2992C31.5498 33.8402 31.9969 32.7751 32.0437 32.6544L37.6167 3.68699C37.9567 2.13989 37.4841 1.35274 37.0267 0.965965ZM16.5089 22.5982L13.9588 29.3986L11.4086 20.8981L30.9599 6.44713L16.5089 22.5982Z" fill="black"/>
</svg>
