<svg width="445" height="159" viewBox="0 0 445 159" fill="none" xmlns="http://www.w3.org/2000/svg">
<path d="M52.7491 45.0705V54.2852H32.6273V106H21.9083V54.2852H1.50443V45.0705H52.7491ZM117.548 105.342V106H105.418L88.9634 82.9634H81.6293V106H70.9103V45.0705H91.032C96.0468 45.0705 100.247 45.8541 103.632 47.4212C107.079 48.9883 109.649 51.151 111.342 53.9091C113.097 56.6672 113.975 59.8641 113.975 63.4998C113.975 67.8251 112.784 71.6175 110.402 74.8771C108.082 78.074 104.666 80.3306 100.153 81.647L117.548 105.342ZM81.6293 74.501H89.7156C93.9782 74.501 97.2378 73.6234 99.4945 71.8682C101.751 70.0504 102.879 67.3863 102.879 63.8759C102.879 60.6163 101.845 58.1403 99.7765 56.4478C97.7706 54.7553 94.8244 53.9091 90.938 53.9091H81.6293V74.501ZM250.511 97.0674H279.565V106H239.791V45.0705H279.095V53.9091H250.511V70.6459H275.334L274.111 79.2964H250.511V97.0674Z" fill="white"/>
<path d="M135.774 106V45.0705H146.493V106H135.774ZM210.86 45.0705H221.767V45.7287L199.389 106H186.977L164.599 45.7287V45.0705H175.882L193.371 95.375L210.86 45.0705Z" fill="#579FFF"/>
<path d="M308.982 109.282C308.154 109.282 307.439 108.981 306.837 108.379C306.273 107.777 305.991 107.044 305.991 106.179C305.991 105.313 306.273 104.598 306.837 104.034C307.439 103.432 308.154 103.131 308.982 103.131C309.809 103.131 310.524 103.432 311.126 104.034C311.728 104.598 312.029 105.313 312.029 106.179C312.029 107.044 311.728 107.777 311.126 108.379C310.524 108.981 309.809 109.282 308.982 109.282ZM355.833 67.129V109H351.996V103.131C350.792 105.125 349.193 106.649 347.2 107.702C345.243 108.755 343.024 109.282 340.541 109.282C337.757 109.282 335.236 108.643 332.979 107.364C330.722 106.084 328.954 104.298 327.675 102.003C326.396 99.7079 325.756 97.0933 325.756 94.1589C325.756 91.2246 326.396 88.61 327.675 86.3152C328.954 84.0204 330.722 82.2522 332.979 81.0108C335.236 79.7317 337.757 79.0922 340.541 79.0922C342.949 79.0922 345.112 79.6 347.03 80.6158C348.987 81.5939 350.585 83.0423 351.827 84.9609V67.129H355.833ZM340.879 105.727C342.949 105.727 344.811 105.257 346.466 104.316C348.159 103.338 349.476 101.965 350.416 100.197C351.394 98.4288 351.883 96.4161 351.883 94.1589C351.883 91.9017 351.394 89.8891 350.416 88.1209C349.476 86.3528 348.159 84.9985 346.466 84.058C344.811 83.0799 342.949 82.5908 340.879 82.5908C338.773 82.5908 336.873 83.0799 335.18 84.058C333.525 84.9985 332.208 86.3528 331.23 88.1209C330.289 89.8891 329.819 91.9017 329.819 94.1589C329.819 96.4161 330.289 98.4288 331.23 100.197C332.208 101.965 333.525 103.338 335.18 104.316C336.873 105.257 338.773 105.727 340.879 105.727ZM401.865 95.4004H377.036C377.262 98.4852 378.447 100.987 380.591 102.906C382.735 104.787 385.444 105.727 388.717 105.727C390.56 105.727 392.253 105.407 393.796 104.768C395.338 104.091 396.674 103.112 397.802 101.833L400.059 104.429C398.743 106.009 397.087 107.213 395.094 108.041C393.137 108.868 390.974 109.282 388.604 109.282C385.557 109.282 382.848 108.643 380.478 107.364C378.146 106.047 376.321 104.241 375.005 101.946C373.688 99.6515 373.029 97.0557 373.029 94.1589C373.029 91.2622 373.65 88.6664 374.892 86.3716C376.171 84.0768 377.901 82.2899 380.083 81.0108C382.303 79.7317 384.786 79.0922 387.532 79.0922C390.278 79.0922 392.742 79.7317 394.924 81.0108C397.106 82.2899 398.818 84.0768 400.059 86.3716C401.301 88.6288 401.922 91.2246 401.922 94.1589L401.865 95.4004ZM387.532 82.5344C384.673 82.5344 382.265 83.4561 380.309 85.2995C378.39 87.1052 377.299 89.4753 377.036 92.4096H398.084C397.821 89.4753 396.711 87.1052 394.755 85.2995C392.836 83.4561 390.429 82.5344 387.532 82.5344ZM443.496 79.3179L430.292 109H426.172L413.024 79.3179H417.2L428.317 104.598L439.546 79.3179H443.496Z" fill="white"/>
</svg>
