<svg width="96" height="21" viewBox="0 0 96 21" fill="none" xmlns="http://www.w3.org/2000/svg">
<path d="M17.9316 0.287513V3.41996H11.0914V21H7.44755V3.41996H0.511419V0.287513H17.9316ZM39.9594 20.7763V21H35.8361L30.2424 13.1689H27.7492V21H24.1054V0.287513H30.9456C32.6504 0.287513 34.0781 0.553877 35.2288 1.0866C36.4008 1.61933 37.2744 2.3545 37.8498 3.2921C38.4464 4.2297 38.7448 5.31647 38.7448 6.5524C38.7448 8.02273 38.3399 9.31193 37.5301 10.42C36.7417 11.5068 35.5804 12.2739 34.0461 12.7214L39.9594 20.7763ZM27.7492 10.2922H30.4981C31.9471 10.2922 33.0552 9.99383 33.8224 9.39717C34.5895 8.77921 34.973 7.87357 34.973 6.68026C34.973 5.57218 34.6214 4.73047 33.9182 4.15512C33.2364 3.57978 32.2348 3.2921 30.9137 3.2921H27.7492V10.2922ZM85.1591 17.9634H95.0359V21H81.5152V0.287513H94.876V3.2921H85.1591V8.98164H93.5975L93.182 11.9223H85.1591V17.9634Z" fill="white"/>
<path d="M46.1554 21V0.287513H49.7992V21H46.1554ZM71.6801 0.287513H75.3879V0.511258L67.7806 21H63.5613L55.954 0.511258V0.287513H59.7896L65.7349 17.3881L71.6801 0.287513Z" fill="#579FFF"/>
</svg>
