<svg width="20" height="20" viewBox="0 0 20 21" fill="none" xmlns="http://www.w3.org/2000/svg"><path d="M19.193 9.752c0 6.86-4.38 6.583-4.936 6.583-.63 0-1.173-.136-1.63-.406a2.58 2.58 0 01-1.04-1.165c-.366.512-.792.897-1.28 1.154a3.35 3.35 0 01-1.587.384 2.885 2.885 0 01-1.433-.352 2.946 2.946 0 01-1.05-.995c-.277-.427-.476-.945-.592-1.548-.117-.605-.14-1.28-.066-2.027.104-.938.306-1.785.61-2.543.303-.758.68-1.404 1.13-1.94a4.914 4.914 0 011.538-1.235 4.018 4.018 0 011.83-.434c2.071 0 3.152 1.044 3.372 1.197l-.56 6.35c-.044.366-.208 1.79 1.153 1.79.359 0 2.495-.467 2.495-4.813 0-.136.938-7.158-6.723-7.158-6.294 0-7.594 6.03-7.594 8.18 0 8.579 5.433 8.182 7.159 8.182 2.067 0 3.122-.436 3.356-.545l.457 1.866c-.256.169-1.278.724-3.813.724-3.132 0-9.204-.15-9.204-10.226 0-1.393.767-10.227 9.682-10.227 8.533 0 8.726 7.735 8.726 9.204zM8.017 11.38c-.08.966.004 1.7.253 2.203.248.5.652.752 1.209.752 1.128 0 1.691-1.469 1.823-1.835l.461-5.196a5.508 5.508 0 00-.878-.143c-.842 0-1.496.359-1.962 1.077-.464.718-.767 1.766-.906 3.142z" fill="#000"/></svg>