<svg width="20" height="20" viewBox="0 0 20 19" fill="none" xmlns="http://www.w3.org/2000/svg"><path d="M7.845 11.668c1.65 1.64 3.562 3.205 4.312 2.449 1.074-1.082 1.736-2.024 4.12-.123 2.383 1.902.563 3.182-.478 4.23-1.2 1.21-5.697.086-10.155-4.338C1.187 9.462.028 4.974 1.23 3.763 2.27 2.715 3.536.885 5.455 3.255c1.92 2.369.983 3.037-.091 4.12-.75.755.83 2.654 2.48 4.293zm2.394-7.818s-.498-.078-.847.27a.969.969 0 00.004 1.356c.223.224.539.271.539.271.614.115 1.54.31 2.526 1.296.985.985 1.18 1.911 1.295 2.526 0 0 .048.315.271.539a.969.969 0 001.356.003c.349-.348.271-.846.271-.846a6.551 6.551 0 00-5.415-5.415zm4.672.743c1.806 1.806 2.576 3.856 2.325 5.518 0 0-.087.526.257.87a.966.966 0 001.361.002c.233-.233.284-.611.284-.611.207-1.436-.054-4.324-2.868-7.138C13.455.42 10.567.159 9.132.366c0 0-.379.05-.611.283a.966.966 0 00.002 1.362c.344.343.87.256.87.256 1.661-.25 3.711.52 5.518 2.326z" fill="#000"/></svg>