<svg width="20" height="20" viewBox="0 0 20 18" fill="none" xmlns="http://www.w3.org/2000/svg"><path d="M18.926.55c-.325-.276-.836-.315-1.365-.103-.556.223-15.735 6.733-16.353 7-.113.039-1.094.405-.993 1.22.09.736.88 1.04.975 1.076l3.86 1.321c.255.852 1.2 3.996 1.408 4.668.13.419.342.97.714 1.082.326.126.651.011.861-.154l2.36-2.188 3.808 2.97.09.055c.26.114.507.171.743.171.183 0 .358-.034.526-.102.57-.235.799-.778.822-.84l2.845-14.787c.174-.79-.067-1.191-.3-1.389zM8.453 11.593L7.15 15.064l-1.302-4.34 9.98-7.376-7.376 8.245z" fill="#000"/></svg>