<svg width="277" height="155" viewBox="0 0 277 155" fill="none" xmlns="http://www.w3.org/2000/svg">
<path d="M51.3839 44.6475V53.6236H31.7829V104H21.3413V53.6236H1.46549V44.6475H51.3839ZM114.505 103.359V104H102.69L86.6609 81.5596H79.5167V104H69.075V44.6475H88.676C93.561 44.6475 97.6522 45.4108 100.95 46.9373C104.308 48.4639 106.811 50.5705 108.46 53.2573C110.17 55.944 111.025 59.0582 111.025 62.5998C111.025 66.8131 109.865 70.5073 107.544 73.6826C105.285 76.7968 101.957 78.995 97.5606 80.2773L114.505 103.359ZM79.5167 73.3162H87.3937C91.5459 73.3162 94.7212 72.4613 96.9194 70.7516C99.1176 68.9808 100.217 66.3856 100.217 62.9662C100.217 59.7909 99.2092 57.379 97.1942 55.7303C95.2402 54.0816 92.3703 53.2573 88.5844 53.2573H79.5167V73.3162ZM244.027 95.2986H272.329V104H233.585V44.6475H271.871V53.2573H244.027V69.5609H268.208L267.017 77.9875H244.027V95.2986Z" fill="white"/>
<path d="M132.26 104V44.6475H142.702V104H132.26ZM205.402 44.6475H216.027V45.2886L194.228 104H182.138L160.339 45.2886V44.6475H171.33L188.366 93.6499L205.402 44.6475Z" fill="#579FFF"/>
</svg>
