<svg width="57" height="57" viewBox="0 0 57 57" fill="none" xmlns="http://www.w3.org/2000/svg">
<path d="M57 28.5C57 44.2401 44.2401 57 28.5 57C12.7599 57 0 44.2401 0 28.5C0 12.7599 12.7599 0 28.5 0C44.2401 0 57 12.7599 57 28.5Z" fill="url(#paint0_linear_128_375)"/>
<path d="M43.5888 12.4537C42.97 11.929 41.9982 11.8539 40.9933 12.2573H40.9917C39.9349 12.6814 11.0763 25.0597 9.90147 25.5654C9.6878 25.6397 7.82164 26.336 8.01387 27.887C8.18547 29.2854 9.68532 29.8645 9.86847 29.9313L17.2052 32.4435C17.692 34.0638 19.4864 40.0417 19.8832 41.3188C20.1307 42.115 20.5341 43.1611 21.2411 43.3764C21.8615 43.6156 22.4786 43.397 22.8779 43.0835L27.3635 38.923L34.6045 44.5702L34.7769 44.6733C35.2686 44.8911 35.7397 45 36.1894 45C36.5367 45 36.87 44.9348 37.1884 44.8045C38.2733 44.359 38.7073 43.3252 38.7526 43.2081L44.1614 15.0945C44.4914 13.593 44.0326 12.829 43.5888 12.4537ZM23.6757 33.4483L21.2007 40.0483L18.7257 31.7983L37.7008 17.7733L23.6757 33.4483Z" fill="black"/>
<defs>
<linearGradient id="paint0_linear_128_375" x1="-4.32574e-08" y1="28" x2="57" y2="28" gradientUnits="userSpaceOnUse">
<stop stop-color="#EB00FF"/>
<stop offset="1" stop-color="#53A2FF"/>
</linearGradient>
</defs>
</svg>
