<svg width="57" height="56" viewBox="0 0 57 56" fill="none" xmlns="http://www.w3.org/2000/svg">
<path d="M21.514 34.6106C26.5454 39.6051 32.3692 44.3762 34.6555 42.0724C37.9292 38.7749 39.9442 35.9058 47.2086 41.6992C54.4729 47.4954 48.9249 51.396 45.7543 54.5914C42.0955 58.2779 28.3915 54.8498 14.8079 41.3692C1.22511 27.8859 -2.3077 14.2086 1.35382 10.5204C4.52539 7.32484 8.38455 1.7493 14.2313 8.97134C20.0809 16.1897 17.2273 18.2268 13.9536 21.5253C11.6683 23.8281 16.4818 29.6151 21.514 34.6106ZM28.8097 10.7833C28.8097 10.7833 27.292 10.5462 26.2292 11.6097C25.1353 12.7037 25.0875 14.5883 26.2403 15.7401C26.9215 16.4213 27.8822 16.5665 27.8822 16.5665C29.7549 16.9177 32.5771 17.5124 35.5805 20.5149C38.583 23.5172 39.1777 26.3395 39.5289 28.2131C39.5289 28.2131 39.6741 29.1737 40.3553 29.855C41.5073 31.0069 43.3917 30.96 44.4857 29.866C45.5484 28.8034 45.3121 27.2857 45.3121 27.2857C44.7174 23.4926 42.8788 19.5304 39.7218 16.3736C36.564 13.2167 32.6017 11.379 28.8097 10.7833ZM43.0468 13.0484C48.5517 18.5533 50.8986 24.8008 50.1346 29.8633C50.1346 29.8633 49.868 31.4666 50.9151 32.5136C52.0937 33.6922 53.9616 33.6242 55.0648 32.522C55.7736 31.8132 55.928 30.6595 55.928 30.6595C56.5596 26.2846 55.7653 17.4832 47.1883 8.90712C38.6112 0.330873 29.8108 -0.463374 25.4358 0.167292C25.4358 0.167292 24.283 0.320869 23.5733 1.03049C22.4701 2.13364 22.403 4.00171 23.5815 5.18017C24.6287 6.22736 26.2318 5.96063 26.2318 5.96063C31.2946 5.19667 37.542 7.54372 43.0468 13.0484Z" fill="white"/>
</svg>
